PathFileType	4	(X/Y/Z)	34_1_25_p0_0-404_filt_butterworth.trc
DataRate	CameraRate	NumFrames	NumMarkers	Units	OrigDataRate	OrigDataStartFrame	OrigNumFrames
52.0	52.0	7	27	m	52.0	0	404
Frame#	Time	RHip			RKnee			RAnkle			RBigToe			RSmallToe			RHeel			LHip			LKnee			LAnkle			LBigToe			LSmallToe			LHeel			Neck			Head			Nose			RShoulder			RElbow			RWrist			RThumb			RIndex			RPinky			LShoulder			LElbow			LWrist			LThumb			LIndex			LPinky			
		X1	Y1	Z1	X2	Y2	Z2	X3	Y3	Z3	X4	Y4	Z4	X5	Y5	Z5	X6	Y6	Z6	X7	Y7	Z7	X8	Y8	Z8	X9	Y9	Z9	X10	Y10	Z10	X11	Y11	Z11	X12	Y12	Z12	X13	Y13	Z13	X14	Y14	Z14	X15	Y15	Z15	X16	Y16	Z16	X17	Y17	Z17	X18	Y18	Z18	X19	Y19	Z19	X20	Y20	Z20	X21	Y21	Z21	X22	Y22	Z22	X23	Y23	Z23	X24	Y24	Z24	X25	Y25	Z25	X26	Y26	Z26	X27	Y27	Z27	
0	0.0	0.3589554908443516	0.443752239232154	1.0046685743496975	0.3777383528851783	0.5865691672113419	1.3777779643137416	0.36944277431466344	0.7063201552121058	1.7345219677750046	0.34749602765661824	0.5735241351678124	1.7835809460117562	0.4153584306462353	0.5861171494889682	1.7849874820373612	0.3493144025610972	0.8322833429378984	1.808214229894338	0.16488446635603382	0.5009147341218808	1.0245391397823753	0.1780794432118972	0.626556418167857	1.4055670621644873	0.18477618601705614	0.7489480705421494	1.754968507829966	0.1943833323505552	0.5424577884579204	1.7545770535579561	0.13518378751780377	0.6131967269476692	1.7692290545956437	0.19553425522886372	0.7826092154021895	1.7880279096714613	0.267694420798797	0.4374564407644957	0.5531687403596082	0.2867124040598592	0.33852281175279386	0.3288580295472709	0.2599909498714313	0.2592615446584291	0.45582856548971107	0.4155949038089216	0.38935360098137767	0.6251725661969804	0.4558364278439112	0.40642602012893975	0.8592888975512757	0.3319825589281534	0.25857360446178307	0.9845816956636076	0.2714037022323939	0.2042978603493807	1.047332751867415	0.26397437417795894	0.20621335725297507	1.0505724973053834	0.26838558863446765	0.21753707632754135	1.0584470134512876	0.11911139968267626	0.42263057698700696	0.6319605971700231	0.10142340797658882	0.395173759175818	0.8640895926979615	0.19865636126555541	0.27457323145140666	0.9873361684939803	0.28454313578973434	0.20695284133706296	1.034839019339267	0.2859311928352046	0.20689694258617597	1.0523456751005513	0.2500715509665322	0.233407207761518	1.0772180823554502
1	0.0192307692307692	0.3589214330943003	0.4440134758372105	1.0043554919014699	0.37771073126075694	0.5849954094575763	1.3785528750532403	0.36949623768169204	0.706392356250648	1.7345112685624975	0.3486184260841302	0.567424104452769	1.7812657688034528	0.4164382651040741	0.5802109636763674	1.7826603234204637	0.34978589133096344	0.832041746598449	1.8064548885232574	0.16507240990303454	0.5009915557385158	1.0243576092389917	0.18285038050704244	0.630041852163425	1.4042760605699682	0.1857051343574841	0.7472741452473627	1.7558822214203256	0.19423534575815518	0.541622667312766	1.7542390129809573	0.13513946908955296	0.6127811159535108	1.769078418262386	0.19410169824070836	0.7798891598811384	1.790009156823268	0.26766640852654616	0.43748891694238135	0.5531451137096745	0.28673548420210593	0.3384478543980032	0.32889663040088946	0.2597051512717934	0.2583027638913711	0.45452097543255704	0.41309798524883284	0.39796859107457555	0.6252691107013041	0.4536273918026839	0.41493140680561336	0.8567321983413483	0.3293868316369505	0.267105871341574	0.9861653388406142	0.2688181397355126	0.21328125908637385	1.0497693156297698	0.25662624078171736	0.22240871448982497	1.0543456221887397	0.2686653619308428	0.21800893838235125	1.0619746184345538	0.11925422966001496	0.4223161209619667	0.6306076202477449	0.09960205633125857	0.39965940693886215	0.8620502354696079	0.20048064406155214	0.2712373479633906	0.9906688833908843	0.28388337810398556	0.20787346479648602	1.0374492179128314	0.28408064353224355	0.20238131633830836	1.0558874869445454	0.24701459194549702	0.24195214333766912	1.0826730304580001
2	0.0384615384615384	0.3589441324558012	0.44401966600106035	1.0034690949886567	0.3776420491842714	0.5843152555422841	1.378710315271392	0.3695231531764645	0.7064210154191373	1.7345093405231515	0.3484987317979222	0.5671500662849357	1.7811937706118766	0.41632426134512257	0.5798114930085672	1.7825148001101074	0.3498134410392031	0.8322452125527697	1.8065073732362493	0.1652218528588566	0.5010869228460643	1.02426384320622	0.1859304679480962	0.6327262623648299	1.4043329661197022	0.18594166855444594	0.7459082716351655	1.755523233306965	0.1935557350248076	0.5381558691992201	1.752932163496448	0.13513622612761628	0.6125569991107432	1.7690374506231767	0.1925175988653522	0.7778777504205422	1.7908870319565686	0.26764709622447813	0.4375005405350264	0.5531876419244548	0.2867327190016393	0.33839958952154425	0.32891636560248794	0.25960270718683703	0.2577913943671802	0.4532117940667516	0.4117648311940296	0.4025062009205547	0.6253047084062523	0.45201283535841874	0.41943562942182094	0.8547593696725273	0.32811755395387693	0.2720448003698419	0.9876598268084418	0.2678382457580286	0.21704740997986638	1.051016668797474	0.25180670666379545	0.22980021219287866	1.05636036081724	0.26911661857786345	0.21734040627956602	1.0644613653457324	0.11940329623593347	0.4219578390461142	0.6292708699907914	0.09886988671426472	0.40153932054489605	0.8609338589829322	0.20153233297344914	0.26887141371491785	0.9915709774950048	0.28352506080046963	0.2083332131776483	1.0388309340715847	0.2828355313678307	0.19990910399925452	1.057985042826994	0.24527636861604019	0.24757126997017911	1.0849946100076242
3	0.0576923076923076	0.3589585629761043	0.4439850147251653	1.00257883685724	0.3776872602103307	0.5851221042044921	1.3792744500641752	0.3695351047978664	0.7064156528645122	1.7345159222530484	0.34770158261242257	0.5706064190951939	1.7825402808555528	0.4155635922776225	0.5827051568564361	1.7836685721173327	0.34957835411242566	0.83261607918038	1.8075965415511765	0.16531568800100077	0.501170197281144	1.0242558377891513	0.1869520924234619	0.6348865848844689	1.4050297441762942	0.18488579135925523	0.7448740745503757	1.7544796737366015	0.19250921132572454	0.532904328883896	1.7508960903924429	0.13515888288258904	0.6125255850974451	1.7690668736020272	0.1913780840921145	0.7769667645218508	1.790843621277125	0.2676390359456657	0.4374864583657398	0.5532400516362266	0.28671662080593924	0.33839011894251425	0.3289213940453365	0.2596473666944893	0.25781151541336267	0.45232471122394735	0.41154831554407706	0.4031528261965366	0.6252872849004215	0.4505494304466599	0.42009918970061094	0.853752158977894	0.32807571573852484	0.27327960748615104	0.9887095441233429	0.26909829350352305	0.21405874692917928	1.05107416060736	0.2514042180891145	0.22716213403226931	1.0566894519924146	0.2704646910340188	0.21378313943240426	1.0654594750860389	0.1195039270820652	0.4216831332235923	0.6284143569690135	0.09955853069310285	0.39999777078006726	0.8606800316215426	0.20214690450088107	0.2667634325721994	0.9903000927813345	0.28348298634476243	0.20825619556937097	1.039026638640034	0.28233016661857874	0.19930039136369945	1.0585293656420156	0.24506825541794794	0.24831165413897832	1.0845062298774901
4	0.0769230769230769	0.35860745153003404	0.4451368963597534	1.0026653581127893	0.3778612254627938	0.5866810762116729	1.3803060207369335	0.36954857112728556	0.7063908270208958	1.7345137537984787	0.34719662139412366	0.5730441784876805	1.7834713779965057	0.41510096146168374	0.5847530772597076	1.784476703037997	0.3494461080113881	0.8327183306153453	1.8082714517524676	0.16534384726289889	0.5011694820606057	1.0242686654029995	0.1867297220119441	0.6374736136881238	1.4046459109017075	0.1829350261807049	0.7441217268174176	1.753840576942317	0.1917119657767491	0.529006683481782	1.74929787887665	0.13517360722217772	0.6125514848154479	1.7690528025391394	0.1910180621780456	0.7768503577151661	1.7906147742385066	0.2676626906782836	0.4373821761747314	0.5529893645619	0.28673625713176965	0.3384293137516135	0.328922203264961	0.2597101086853686	0.257958791045407	0.45206259861329545	0.41171742401963474	0.402489745434479	0.6252594214471042	0.44895407020984274	0.4194337375502994	0.853540797132547	0.32839030621477294	0.2727754543201618	0.9892966383114297	0.271042433967315	0.20890483858965572	1.0507575718274957	0.254414696537786	0.22132393243546167	1.056403736144343	0.27208854139008093	0.20897616831213317	1.0651959854084356	0.11953195685072049	0.42155528183789104	0.6281993315767651	0.10068091995636999	0.39741572656159446	0.8608470423449541	0.2025817627848519	0.26486188864682325	0.9886644693143128	0.2835439256020198	0.207999280569772	1.0387833827059145	0.28227531166788444	0.1990280817134089	1.0574663933345807	0.24553688054272005	0.24630881239255842	1.0834760963026953
5	0.0961538461538461	0.3574811881561944	0.44884178512392897	1.0035079176931845	0.37796017955641453	0.5871359473635196	1.3798930512366896	0.3695364457465187	0.7063749596066206	1.7345075611660685	0.34704755931544146	0.5722171362354193	1.7831317948947938	0.4150043562130658	0.5855071216879882	1.7847679910093495	0.3494699046459271	0.8326064226976605	1.8083611774801864	0.16531310126129706	0.5010494179870076	1.0242561095281826	0.1863193532278854	0.6397329314128314	1.4026638072499664	0.18134899993305267	0.7438757543585452	1.7540884170629716	0.19138743585564733	0.5277485907856178	1.7491020199159684	0.13517283076491254	0.612521460499156	1.7689696733938192	0.19106489920106623	0.776900250461291	1.7905368667649477	0.2677448431451328	0.43709856689857257	0.5521112640677304	0.28683408514525344	0.3385172518516607	0.3289187138778624	0.2597360502406452	0.2578586625705945	0.4521248575975354	0.41182528309844935	0.4020732453420576	0.6252433086967194	0.44779745776482516	0.41899160676190456	0.8536479829804482	0.328638380914575	0.2721146993598411	0.9903383069706131	0.27197617989421213	0.20622702219340372	1.0505676817765792	0.25823120781674386	0.21797312073573596	1.055953050906172	0.27279970953578037	0.20599876396407013	1.064216046648652	0.11953112413553978	0.42149551907356725	0.628230790902584	0.10121119028561654	0.39621696047533866	0.8610430256169022	0.2026910096715268	0.2638035749930092	0.9879977260958767	0.2835578809744817	0.20789855266414273	1.0385738260270028	0.28232586835964585	0.19828724453086544	1.0549182889447446	0.2458049408947869	0.24494361670262865	1.083148916002682
6	0.1153846153846153	0.35584968108084364	0.45413371728873475	1.0042305018554776	0.3778431519930088	0.5849149488862354	1.3773519403032455	0.36944305110751785	0.7065023826130055	1.7345753681150935	0.3470679437888454	0.5676261262157904	1.7813117771060316	0.4150476082109689	0.5857037509494379	1.784844547270699	0.3495247067724742	0.83263618368499	1.8083119967800432	0.1652675806708075	0.5008750075814604	1.024233740232368	0.1862932957871822	0.6404979230622839	1.4008856298683454	0.18101651772280633	0.7444383047662034	1.7553850524765986	0.19135147630558275	0.5281525454458744	1.7507749519093192	0.13516948187354771	0.612403728202072	1.7689121319490089	0.19115148575361093	0.7769219231802874	1.7906267080580347	0.2678581653681579	0.4367098843789831	0.5508715514043019	0.2869176668633161	0.33858690100291	0.32891474075360955	0.2597273500525584	0.2576189101786141	0.452196071306448	0.41181896369304866	0.4020321303460535	0.6252448560515246	0.44739988871727676	0.4189514376224048	0.8537684372669777	0.32879935075154193	0.27176490865226777	0.9919479569633145	0.2720353401275957	0.2060223410141483	1.0503916106422897	0.26143866430822665	0.21690854890203648	1.0550121510069415	0.27268284759675543	0.2052607259990146	1.0632842874350152	0.11953088254849464	0.421473559897638	0.6282487081495618	0.10112739571733023	0.39616867352494967	0.860458536947102	0.2025879967414728	0.2635333124776953	0.98827630339598	0.2835386420500955	0.20797841401912276	1.0384867291097766	0.28232332501598767	0.1973826978700839	1.05224800672752	0.24571793472570572	0.24470538120147506	1.083404184142468
